<?xml version="1.0" encoding="UTF-8" standalone="no"?>
<svg
   xmlns:dc="http://purl.org/dc/elements/1.1/"
   xmlns:cc="http://creativecommons.org/ns#"
   xmlns:rdf="http://www.w3.org/1999/02/22-rdf-syntax-ns#"
   xmlns:svg="http://www.w3.org/2000/svg"
   xmlns="http://www.w3.org/2000/svg"
   viewBox="0 0 640 639.94672"
   height="60"
   width="60"
   version="1.1"
   id="svg2">
  <metadata
     id="metadata8">
    <rdf:RDF>
      <cc:Work
         rdf:about="">
        <dc:format>image/svg+xml</dc:format>
        <dc:type
           rdf:resource="http://purl.org/dc/dcmitype/StillImage" />
        <dc:title></dc:title>
      </cc:Work>
    </rdf:RDF>
  </metadata>
  <defs
     id="defs6" />
  <path
     id="path3338"
     d="M 39.7025,637.57267 C 21.7646,631.8384 7.2706,616.95376 1.9819,598.83562 0.1996,592.72997 0,564.63815 0,319.88449 0,56.28255 0.075,47.48342 2.3682,40.11369 8.0481003,21.8641 22.8324,7.33295 41.1644,1.98183 47.2701,0.19958 75.3619,0 320.1155,0 583.7175,0 592.5166,0.0745 599.8863,2.3682 618.1359,8.04811 632.6671,22.83241 638.0182,41.16437 639.8004,47.26999 640,75.35178 640,320 c 0,244.64821 -0.1996,272.73001 -1.9818,278.83562 -5.3511,18.33197 -19.8823,33.11627 -38.1319,38.79618 -7.3727,2.29466 -16.0765,2.36611 -280.3101,2.30097 -260.9465,-0.0644 -273.0103,-0.16605 -279.8737,-2.3601 z M 592.781,617.44299 c 9.2739,-2.5756 21.5515,-14.70416 24.965,-24.66206 2.1314,-6.21761 3.0748,-524.75031 0.9796,-538.3954 C 616.5825,40.42864 608.2697,29.31409 595.625,23.49919 L 589.375,20.625 326.25,20.27734 C 146.7115,20.04012 60.4066,20.34744 54.5675,21.2448 44.1709,22.84254 39.7747,24.94504 32.7094,31.69842 25.6943,38.40382 22.8586,44.06377 21.2437,54.584 20.3516,60.39521 20.0432,147.22229 20.2788,326.25 l 0.3462,263.125 2.8723,6.25 c 4.6159,10.04402 14.4675,19.05906 23.9946,21.95708 5.0058,1.5227 539.7967,1.38628 545.2891,-0.13909 z M 167.2147,539.94164 C 156.8863,538.73838 151.8768,537.15436 140.625,531.53393 129.0166,525.73535 114.7278,511.4363 108.489,499.375 99.500199,481.99712 99.999999,492.55949 99.999999,320 c 0,-172.52566 -0.4986,-161.96919 8.473101,-179.375 6.1916,-12.01204 21.5834,-27.26782 33.1458,-32.8528 18.5272,-8.94923 6.7183,-8.3972 179.6311,-8.3972 l 155.625,0 10.098,3.42413 c 24.1993,8.2057 42.0222,26.02859 50.2279,50.22786 l 3.4241,10.09801 0,156.875 0,156.875 -3.4241,10.09801 c -9.9639,29.38437 -34.1305,49.11975 -64.8681,52.97393 -12.235,1.53414 -291.9457,1.52927 -305.1181,-0.005 z m 303.2729,-21.23612 c 17.3631,-2.50982 34.1763,-14.25286 42.3875,-29.60503 7.0164,-13.11857 7.0796,-14.24095 7.1032,-126.28799 L 520.0003,260 l -199.375,0 -199.375,0 0,106.02312 c 0,93.38852 0.2377,106.8322 1.9942,112.8125 6.1321,20.87713 24.1367,36.44059 46.1308,39.8762 9.4851,1.48163 290.8598,1.47574 301.1126,-0.006 z M 308.125,479.97119 c -41.549,-4.46052 -75.8823,-35.05322 -86.2422,-76.84619 -2.852,-11.50518 -2.874,-33.0748 -0.047,-45.625 2.7755,-12.3198 12.6469,-32.42709 20.682,-42.12782 12.6358,-15.25497 32.6643,-27.67109 52.9943,-32.8523 13.6042,-3.46711 35.3478,-3.47029 48.9751,-0.007 21.1065,5.36378 40.5469,17.78668 54.0083,34.51253 7.3871,9.17857 16.4909,27.11313 18.9359,37.30399 8.6222,35.9377 -1.0672,71.8066 -26.1817,96.9211 -11.5823,11.58222 -27.6203,21.17165 -42.5394,25.43511 -6.1601,1.76038 -27.3479,4.79796 -30.5856,4.3849 -0.6875,-0.0878 -5.1875,-0.58217 -10,-1.09882 z m 20.625,-21.26338 c 13.2608,-1.71858 23.5703,-5.47256 34.0538,-12.40005 20.6091,-13.61837 32.7959,-33.08699 35.8235,-57.22895 4.8047,-38.31094 -21.3378,-76.0765 -59.4327,-85.85695 C 334.9209,302.12463 326.407,301.25 320,301.25 c -25.722,0 -47.7055,11.05581 -63.4543,31.912 -23.637,31.30265 -20.3862,74.45181 7.7272,102.56515 14.5966,14.59664 31.1932,22.01836 53.8521,24.08183 0.6875,0.0626 5.4688,-0.43292 10.625,-1.10117 z M 304.5345,438.6874 c -8.7036,-2.17912 -21.6721,-9.93765 -28.2675,-16.91135 -3.7558,-3.97116 -8.268,-10.72245 -10.9904,-16.44411 -4.2484,-8.92859 -4.655,-10.75936 -5.071,-22.83194 -0.3779,-10.96824 0,-14.46014 2.2684,-21.25 3.4297,-10.24303 8.4906,-18.22169 16.0332,-25.2769 12.2502,-11.45861 24.1893,-15.98824 42.0322,-15.94674 26.9873,0.0627 48.2998,15.54629 57.0375,41.43775 2.22,6.57829 2.5936,10.1218 2.2175,21.03589 -0.416,12.07257 -0.8226,13.90335 -5.0709,22.83194 -6.4074,13.46626 -14.9225,22.15681 -28.1143,28.69357 -10.0091,4.95973 -10.9572,5.17933 -23.829,5.51953 -7.3728,0.19486 -15.5834,-0.19108 -18.2457,-0.85764 z m 31.9591,-23.47261 c 7.4774,-3.65819 15.0448,-11.21764 18.7408,-18.7212 4.1582,-8.442 4.136,-24.58948 -0.045,-33.08095 -14.45,-29.34413 -56.0251,-29.50277 -70.2043,-0.26787 -3.6246,7.47327 -4.706,19.54648 -2.4671,27.54317 3.0468,10.88216 13.442,21.96656 24.5602,26.1887 7.2442,2.75098 22.1128,1.91098 29.4158,-1.66185 z M 158.75,181.94002 l 0,-58.05997 -3.9168,1.3654 c -6.4612,2.25241 -18.7156,12.42351 -23.8008,19.75455 -8.9612,12.91917 -9.7824,17.86166 -9.7824,58.88168 l 0,36.11832 18.75,0 18.75,0 0,-58.05998 z M 200,180 l 0,-60 -10,0 -10,0 0,60 0,60 10,0 10,0 0,-60 z m 38.75,0 0,-60 -8.75,0 -8.75,0 0,60 0,60 8.75,0 8.75,0 0,-60 z m 281.2283,27.1875 c -0.024,-36.28148 -1.1422,-45.14283 -7.1032,-56.28799 -8.0304,-15.01422 -24.8429,-26.97198 -41.6251,-29.60558 -5.0276,-0.78898 -46.8421,-1.27864 -109.6875,-1.28449 L 260,120.00044 l 0,60 0,60 130,0 130,0 -0.022,-32.8125 z m -88.4501,12.78662 c -7.8363,-1.62018 -17.4867,-7.31406 -22.1403,-13.063 -6.9187,-8.54731 -8.5517,-12.92263 -9.1107,-24.41112 -0.659,-13.54461 2.3296,-22.30809 10.4611,-30.67485 15.8972,-16.35694 42.2735,-16.64296 57.8165,-0.62696 8.4594,8.71675 10.8202,15.00101 10.8202,28.80181 0,10.0394 -0.4681,12.82621 -3.0286,18.02864 -8.0255,16.3063 -27.0463,25.61992 -44.8182,21.94548 z m 17.8426,-23.60306 c 12.6977,-7.22461 12.4722,-25.51439 -0.4074,-33.03644 C 436.8833,156.27946 421.25,165.68049 421.25,180 c 0,7.59869 3.8327,13.4583 11.2601,17.21489 6.1325,3.10165 10.2921,2.89347 16.8607,-0.84383 z"
     style="fill:#fafafa" />
</svg>
