<?xml version="1.0" encoding="UTF-8" standalone="no"?>
<svg
   xmlns:dc="http://purl.org/dc/elements/1.1/"
   xmlns:cc="http://creativecommons.org/ns#"
   xmlns:rdf="http://www.w3.org/1999/02/22-rdf-syntax-ns#"
   xmlns:svg="http://www.w3.org/2000/svg"
   xmlns="http://www.w3.org/2000/svg"
   viewBox="0 0 639.99994 639.94672"
   height="60"
   width="60"
   version="1.1"
   id="svg2">
  <metadata
     id="metadata8">
    <rdf:RDF>
      <cc:Work
         rdf:about="">
        <dc:format>image/svg+xml</dc:format>
        <dc:type
           rdf:resource="http://purl.org/dc/dcmitype/StillImage" />
        <dc:title></dc:title>
      </cc:Work>
    </rdf:RDF>
  </metadata>
  <defs
     id="defs6" />
  <path
     id="path3338"
     d="M 39.70244,637.57267 C 21.76461,631.8384 7.27054,616.95376 1.98183,598.83562 0.19958,592.72997 0,564.63815 0,319.88448 0,56.28255 0.0745,47.48342 2.3682,40.11369 8.0481097,21.8641 22.83241,7.33295 41.16438,1.98183 47.27003,0.19958 75.36185,0 320.11555,0 c 263.6019,0 272.401,0.0745 279.7707,2.3682 18.2496,5.67991 32.7808,20.46421 38.1319,38.79618 1.7823,6.10561 1.9818,34.18741 1.9818,278.83561 0,244.64822 -0.1995,272.73002 -1.9818,278.83563 -5.3511,18.33197 -19.8823,33.11627 -38.1319,38.79618 -7.3727,2.29466 -16.0765,2.36611 -280.3101,2.30097 -260.94649,-0.0644 -273.01032,-0.16605 -279.87371,-2.3601 z m 553.07851,-20.12968 c 9.2739,-2.5756 21.5515,-14.70416 24.965,-24.66206 2.1314,-6.21761 3.0749,-524.75031 0.9796,-538.3954 -2.1431,-13.95689 -10.4559,-25.07144 -23.1006,-30.88634 l -6.25,-2.87419 -263.125,-0.34766 C 146.71155,20.04013 60.40655,20.34744 54.5675,21.2448 44.17088,22.84254 39.77464,24.94504 32.70935,31.69843 25.69426,38.40382 22.85862,44.06377 21.24364,54.58401 20.35156,60.39522 20.04317,147.22229 20.27875,326.24999 L 20.625,589.375 l 2.8723,6.25 c 4.61592,10.04402 14.46752,19.05906 23.99461,21.95708 5.0058,1.5227 539.79664,1.38628 545.28904,-0.13909 z M 440.17735,479.87304 c -7.7897,-1.6018 -12.9862,-6.73616 -35.0733,-34.65347 -26.832,-33.91478 -27.6559,-34.84338 -28.8795,-32.55066 -0.5007,0.93834 -3.0013,11.54983 -5.5568,23.58108 -5.3492,25.18398 -7.2531,31.22121 -11.4005,36.15005 -6.0976,7.24662 -8.2278,7.59996 -45.8187,7.59996 -30.3221,0 -35.445,-0.29289 -44.1861,-2.52617 -20.0693,-5.12757 -40.0559,-17.40133 -60.8981,-37.39756 -43.0191,-41.27298 -83.333,-111.9351 -120.5651,-211.32627 -3.8238,-10.20782 -4.4642,-13.45443 -4.5613,-23.125 -0.1284,-12.79304 1.9128,-17.89604 9.0942,-22.73564 7.492005,-5.04881 15.1126,-5.69147 55.8713,-4.71167 36.4396,0.87596 38.0228,1.0156 40.3001,3.55455 1.3038,1.45351 4.5042,9.11151 7.1121,17.01776 10.8921,33.02132 23.9903,59.30421 49.0568,98.43749 6.6677,10.40952 8.7694,12.8125 11.206,12.8125 6.0268,0 6.6215,-4.52702 6.6215,-50.39833 0,-26.40597 -0.4909,-43.13695 -1.337,-45.564 -1.5461,-4.43522 -6.4515,-7.15349 -15.2492,-8.45007 -11.0258,-1.62499 -13.8235,-9.84862 -7.2496,-21.30989 4.4927,-7.83294 11.1091,-13.76975 19.3938,-17.40185 12.4951,-5.47795 18.5312,-6.25085 48.817,-6.25085 26.5966,0 29.1761,0.19715 34.4386,2.63207 8.2879,3.83482 14.2161,9.57942 17.5911,17.04633 2.9612,6.55127 2.9723,6.7552 3.5953,65.94659 l 0.625,59.375 3.9625,0.38424 c 5.5829,0.54136 9.0639,-3.107 24.8164,-26.00924 24.8444,-36.12069 38.1383,-59.60253 43.0165,-75.98259 2.2414,-7.52614 3.5533,-9.66116 8.879,-14.4494 12.2779,-11.03891 11.0366,-10.818 60.7854,-10.818 43.3672,0 43.8364,0.0275 47.9753,2.81675 13.211,8.90286 13.1443,29.67114 -0.1804,56.17259 -8.7455,17.39398 -18.5486,31.4335 -46.1209,66.05225 -18.7058,23.48638 -25.0088,32.96605 -25.0088,37.61344 0,2.7335 8.2883,13.90379 37.1875,50.11871 20.4532,25.63069 37.9112,48.21977 38.7958,50.19795 4.8995,10.95735 2.4739,22.62431 -6.2575,30.09803 -9.0079,7.71044 -11.5692,8.06034 -61.8712,8.45242 -24.8987,0.19407 -46.916,0.0145 -48.9272,-0.3991 z m 95.0385,-22.78219 c 3.5367,-1.74929 3.7325,-4.72154 0.5809,-8.81698 -1.6503,-2.14438 -18.2475,-23.02388 -36.8827,-46.39888 -18.6352,-23.375 -34.8382,-44.46875 -36.0067,-46.875 -1.1684,-2.40625 -2.3642,-7.55399 -2.6572,-11.43943 -1.0319,-13.68128 2.7909,-20.43483 33.5017,-59.18557 32.5918,-41.12419 45.2051,-62.07392 47.123,-78.26729 l 0.7234,-6.1077 -38.1306,0 c -37.44,0 -38.1958,0.0501 -41.7366,2.76754 -4.6624,3.57826 -5.4174,4.87529 -8.9395,15.35746 -4.2702,12.7089 -16.2987,34.29261 -33.429,59.98449 -25.7777,38.66129 -30.4695,44.04899 -41.7366,47.92775 -11.6747,4.01909 -27.7021,-0.23363 -33.5635,-8.90576 l -2.8125,-4.16119 -0.01,-58.04765 c 0,-34.56542 -0.509,-59.85503 -1.2481,-62.51547 -0.6826,-2.45729 -2.6919,-5.8323 -4.4651,-7.5 -3.1019,-2.91731 -4.0044,-3.04723 -23.8241,-3.42973 -21.5494,-0.41589 -34.4453,0.88821 -43.1245,4.36095 l -5.1589,2.06419 4.3509,2.23216 c 6.4184,3.2928 11.9009,10.23441 14.1245,17.88346 1.6658,5.72998 1.9084,14.0417 1.5958,54.68192 -0.3564,46.35583 -0.4568,48.08857 -3.0665,52.92487 -5.6461,10.46335 -14.286,15.625 -26.1541,15.625 -10.665,0 -15.6874,-3.39458 -24.0428,-16.25 -26.5579,-40.86143 -46.9655,-81.31035 -55.2716,-109.55088 l -1.5223,-5.1759 -31.4056,-0.87956 c -35.2556,-0.98739 -38.2801,-0.5551 -38.2801,5.47153 0,7.37263 18.7209,55.33792 36.1555,92.63481 36.8232,78.77397 78.8834,133.04203 118.2195,152.53242 16.3188,8.08568 21.0605,8.81069 55.1205,8.42816 l 29.8795,-0.33557 1.5596,-5 c 0.8577,-2.75 3.819,-15.39102 6.5807,-28.09113 5.5916,-25.71357 8.2125,-31.39866 15.9694,-34.63972 6.6062,-2.76023 15.4672,-1.5942 21.9157,2.88395 3.0171,2.09515 14.0119,14.71318 26.021,29.86254 11.438,14.4289 22.9693,28.48436 25.625,31.23436 l 4.8286,5 43.75,-0.625 c 24.0625,-0.34375 44.6909,-1.09036 45.8409,-1.65915 z"
     style="fill:#fafafa" />
</svg>
